<svg xmlns="http://www.w3.org/2000/svg" viewBox="0 0 32 32">
  <rect width="32" height="32" fill="#080810"/>
  <radialGradient id="gal" cx="50%" cy="50%" r="50%">
    <stop offset="0%" stop-color="#1a1040" stop-opacity="0.9"/>
    <stop offset="100%" stop-color="#080810" stop-opacity="0"/>
  </radialGradient>
  <ellipse cx="16" cy="16" rx="14" ry="10" fill="url(#gal)" transform="rotate(-25 16 16)"/>
  <radialGradient id="neb" cx="60%" cy="40%" r="30%">
    <stop offset="0%" stop-color="#00e8d5" stop-opacity="0.07"/>
    <stop offset="100%" stop-color="#00e8d5" stop-opacity="0"/>
  </radialGradient>
  <rect width="32" height="32" fill="url(#neb)"/>
  <circle cx="3" cy="4" r="0.4" fill="#fff" opacity="0.9"/>
  <circle cx="8" cy="2" r="0.3" fill="#fff" opacity="0.7"/>
  <circle cx="14" cy="5" r="0.4" fill="#fff" opacity="0.8"/>
  <circle cx="20" cy="3" r="0.3" fill="#fff" opacity="0.6"/>
  <circle cx="27" cy="6" r="0.4" fill="#fff" opacity="0.9"/>
  <circle cx="29" cy="2" r="0.3" fill="#fff" opacity="0.7"/>
  <circle cx="5" cy="10" r="0.3" fill="#fff" opacity="0.6"/>
  <circle cx="11" cy="8" r="0.35" fill="#fff" opacity="0.8"/>
  <circle cx="25" cy="9" r="0.3" fill="#fff" opacity="0.7"/>
  <circle cx="30" cy="12" r="0.4" fill="#fff" opacity="0.5"/>
  <circle cx="2" cy="17" r="0.3" fill="#fff" opacity="0.7"/>
  <circle cx="7" cy="22" r="0.35" fill="#fff" opacity="0.6"/>
  <circle cx="28" cy="19" r="0.3" fill="#fff" opacity="0.8"/>
  <circle cx="31" cy="25" r="0.4" fill="#fff" opacity="0.6"/>
  <circle cx="4" cy="28" r="0.3" fill="#fff" opacity="0.7"/>
  <circle cx="10" cy="30" r="0.35" fill="#fff" opacity="0.5"/>
  <circle cx="22" cy="29" r="0.3" fill="#fff" opacity="0.8"/>
  <circle cx="29" cy="28" r="0.4" fill="#fff" opacity="0.6"/>
  <circle cx="17" cy="27" r="0.3" fill="#fff" opacity="0.5"/>
  <circle cx="24" cy="22" r="0.3" fill="#fff" opacity="0.7"/>
  <circle cx="6" cy="6" r="0.6" fill="#fff" opacity="1"/>
  <circle cx="26" cy="4" r="0.5" fill="#e0f0ff" opacity="0.9"/>
  <circle cx="30" cy="20" r="0.6" fill="#fff" opacity="0.9"/>
  <circle cx="2" cy="25" r="0.5" fill="#fff" opacity="0.8"/>
  <circle cx="21" cy="26" r="0.6" fill="#e0f0ff" opacity="0.9"/>
  <circle cx="9" cy="14" r="0.4" fill="#00e8d5" opacity="0.5"/>
  <circle cx="23" cy="18" r="0.35" fill="#00e8d5" opacity="0.4"/>
  <circle cx="19" cy="11" r="0.3" fill="#00e8d5" opacity="0.5"/>
  <text x="50%" y="54%" font-family="Georgia, serif" font-size="16" font-weight="bold" fill="#00e8d5" text-anchor="middle" dominant-baseline="middle" letter-spacing="2" opacity="0.45">λ Ƶ</text>
</svg>
